<mxfile host="app.diagrams.net" modified="2024-02-07T18:42:53.706Z" agent="Mozilla/5.0 (Windows NT 10.0; Win64; x64) AppleWebKit/537.36 (KHTML, like Gecko) Chrome/121.0.0.0 Safari/537.36 Edg/121.0.0.0" etag="HpMewoB9SUMmQnyVugC_" version="23.1.2" type="device">
  <diagram name="Page-1" id="J8vOMFHtQtcJ13KvhL6_">
    <mxGraphModel dx="2780" dy="733" grid="1" gridSize="10" guides="1" tooltips="1" connect="1" arrows="1" fold="1" page="0" pageScale="1" pageWidth="827" pageHeight="1169" background="#FFFFFF" math="0" shadow="0">
      <root>
        <mxCell id="0" />
        <mxCell id="1" parent="0" />
        <mxCell id="h1bzfyce9Wk_m36BZG1F-1" value="Animal" style="swimlane;fontStyle=0;childLayout=stackLayout;horizontal=1;startSize=30;horizontalStack=0;resizeParent=1;resizeParentMax=0;resizeLast=0;collapsible=1;marginBottom=0;whiteSpace=wrap;html=1;" vertex="1" parent="1">
          <mxGeometry x="90" y="648" width="140" height="210" as="geometry" />
        </mxCell>
        <mxCell id="h1bzfyce9Wk_m36BZG1F-2" value="&lt;u&gt;id&lt;/u&gt;" style="text;strokeColor=none;fillColor=none;align=left;verticalAlign=middle;spacingLeft=4;spacingRight=4;overflow=hidden;points=[[0,0.5],[1,0.5]];portConstraint=eastwest;rotatable=0;whiteSpace=wrap;html=1;" vertex="1" parent="h1bzfyce9Wk_m36BZG1F-1">
          <mxGeometry y="30" width="140" height="30" as="geometry" />
        </mxCell>
        <mxCell id="h1bzfyce9Wk_m36BZG1F-6" value="idPerson*" style="text;strokeColor=none;fillColor=none;align=left;verticalAlign=middle;spacingLeft=4;spacingRight=4;overflow=hidden;points=[[0,0.5],[1,0.5]];portConstraint=eastwest;rotatable=0;whiteSpace=wrap;html=1;" vertex="1" parent="h1bzfyce9Wk_m36BZG1F-1">
          <mxGeometry y="60" width="140" height="30" as="geometry" />
        </mxCell>
        <mxCell id="h1bzfyce9Wk_m36BZG1F-90" value="idRace*" style="text;strokeColor=none;fillColor=none;align=left;verticalAlign=middle;spacingLeft=4;spacingRight=4;overflow=hidden;points=[[0,0.5],[1,0.5]];portConstraint=eastwest;rotatable=0;whiteSpace=wrap;html=1;" vertex="1" parent="h1bzfyce9Wk_m36BZG1F-1">
          <mxGeometry y="90" width="140" height="30" as="geometry" />
        </mxCell>
        <mxCell id="h1bzfyce9Wk_m36BZG1F-3" value="name" style="text;strokeColor=none;fillColor=none;align=left;verticalAlign=middle;spacingLeft=4;spacingRight=4;overflow=hidden;points=[[0,0.5],[1,0.5]];portConstraint=eastwest;rotatable=0;whiteSpace=wrap;html=1;" vertex="1" parent="h1bzfyce9Wk_m36BZG1F-1">
          <mxGeometry y="120" width="140" height="30" as="geometry" />
        </mxCell>
        <mxCell id="h1bzfyce9Wk_m36BZG1F-5" value="picture" style="text;strokeColor=none;fillColor=none;align=left;verticalAlign=middle;spacingLeft=4;spacingRight=4;overflow=hidden;points=[[0,0.5],[1,0.5]];portConstraint=eastwest;rotatable=0;whiteSpace=wrap;html=1;" vertex="1" parent="h1bzfyce9Wk_m36BZG1F-1">
          <mxGeometry y="150" width="140" height="30" as="geometry" />
        </mxCell>
        <mxCell id="h1bzfyce9Wk_m36BZG1F-7" value="birth" style="text;strokeColor=none;fillColor=none;align=left;verticalAlign=middle;spacingLeft=4;spacingRight=4;overflow=hidden;points=[[0,0.5],[1,0.5]];portConstraint=eastwest;rotatable=0;whiteSpace=wrap;html=1;" vertex="1" parent="h1bzfyce9Wk_m36BZG1F-1">
          <mxGeometry y="180" width="140" height="30" as="geometry" />
        </mxCell>
        <mxCell id="h1bzfyce9Wk_m36BZG1F-8" value="Person" style="swimlane;fontStyle=0;childLayout=stackLayout;horizontal=1;startSize=30;horizontalStack=0;resizeParent=1;resizeParentMax=0;resizeLast=0;collapsible=1;marginBottom=0;whiteSpace=wrap;html=1;" vertex="1" parent="1">
          <mxGeometry x="370" y="650" width="140" height="240" as="geometry" />
        </mxCell>
        <mxCell id="h1bzfyce9Wk_m36BZG1F-9" value="&lt;u&gt;id&lt;/u&gt;" style="text;strokeColor=none;fillColor=none;align=left;verticalAlign=middle;spacingLeft=4;spacingRight=4;overflow=hidden;points=[[0,0.5],[1,0.5]];portConstraint=eastwest;rotatable=0;whiteSpace=wrap;html=1;" vertex="1" parent="h1bzfyce9Wk_m36BZG1F-8">
          <mxGeometry y="30" width="140" height="30" as="geometry" />
        </mxCell>
        <mxCell id="h1bzfyce9Wk_m36BZG1F-14" value="idAddress*" style="text;strokeColor=none;fillColor=none;align=left;verticalAlign=middle;spacingLeft=4;spacingRight=4;overflow=hidden;points=[[0,0.5],[1,0.5]];portConstraint=eastwest;rotatable=0;whiteSpace=wrap;html=1;" vertex="1" parent="h1bzfyce9Wk_m36BZG1F-8">
          <mxGeometry y="60" width="140" height="30" as="geometry" />
        </mxCell>
        <mxCell id="h1bzfyce9Wk_m36BZG1F-10" value="name" style="text;strokeColor=none;fillColor=none;align=left;verticalAlign=middle;spacingLeft=4;spacingRight=4;overflow=hidden;points=[[0,0.5],[1,0.5]];portConstraint=eastwest;rotatable=0;whiteSpace=wrap;html=1;" vertex="1" parent="h1bzfyce9Wk_m36BZG1F-8">
          <mxGeometry y="90" width="140" height="30" as="geometry" />
        </mxCell>
        <mxCell id="h1bzfyce9Wk_m36BZG1F-11" value="lastName" style="text;strokeColor=none;fillColor=none;align=left;verticalAlign=middle;spacingLeft=4;spacingRight=4;overflow=hidden;points=[[0,0.5],[1,0.5]];portConstraint=eastwest;rotatable=0;whiteSpace=wrap;html=1;" vertex="1" parent="h1bzfyce9Wk_m36BZG1F-8">
          <mxGeometry y="120" width="140" height="30" as="geometry" />
        </mxCell>
        <mxCell id="h1bzfyce9Wk_m36BZG1F-12" value="email" style="text;strokeColor=none;fillColor=none;align=left;verticalAlign=middle;spacingLeft=4;spacingRight=4;overflow=hidden;points=[[0,0.5],[1,0.5]];portConstraint=eastwest;rotatable=0;whiteSpace=wrap;html=1;" vertex="1" parent="h1bzfyce9Wk_m36BZG1F-8">
          <mxGeometry y="150" width="140" height="30" as="geometry" />
        </mxCell>
        <mxCell id="h1bzfyce9Wk_m36BZG1F-13" value="password" style="text;strokeColor=none;fillColor=none;align=left;verticalAlign=middle;spacingLeft=4;spacingRight=4;overflow=hidden;points=[[0,0.5],[1,0.5]];portConstraint=eastwest;rotatable=0;whiteSpace=wrap;html=1;" vertex="1" parent="h1bzfyce9Wk_m36BZG1F-8">
          <mxGeometry y="180" width="140" height="30" as="geometry" />
        </mxCell>
        <mxCell id="h1bzfyce9Wk_m36BZG1F-114" value="phone" style="text;strokeColor=none;fillColor=none;align=left;verticalAlign=middle;spacingLeft=4;spacingRight=4;overflow=hidden;points=[[0,0.5],[1,0.5]];portConstraint=eastwest;rotatable=0;whiteSpace=wrap;html=1;" vertex="1" parent="h1bzfyce9Wk_m36BZG1F-8">
          <mxGeometry y="210" width="140" height="30" as="geometry" />
        </mxCell>
        <mxCell id="h1bzfyce9Wk_m36BZG1F-15" value="Alert" style="swimlane;fontStyle=0;childLayout=stackLayout;horizontal=1;startSize=30;horizontalStack=0;resizeParent=1;resizeParentMax=0;resizeLast=0;collapsible=1;marginBottom=0;whiteSpace=wrap;html=1;" vertex="1" parent="1">
          <mxGeometry x="-50" y="1020" width="140" height="180" as="geometry" />
        </mxCell>
        <mxCell id="h1bzfyce9Wk_m36BZG1F-16" value="&lt;u&gt;id&lt;/u&gt;" style="text;strokeColor=none;fillColor=none;align=left;verticalAlign=middle;spacingLeft=4;spacingRight=4;overflow=hidden;points=[[0,0.5],[1,0.5]];portConstraint=eastwest;rotatable=0;whiteSpace=wrap;html=1;" vertex="1" parent="h1bzfyce9Wk_m36BZG1F-15">
          <mxGeometry y="30" width="140" height="30" as="geometry" />
        </mxCell>
        <mxCell id="h1bzfyce9Wk_m36BZG1F-17" value="idAnimal*" style="text;strokeColor=none;fillColor=none;align=left;verticalAlign=middle;spacingLeft=4;spacingRight=4;overflow=hidden;points=[[0,0.5],[1,0.5]];portConstraint=eastwest;rotatable=0;whiteSpace=wrap;html=1;" vertex="1" parent="h1bzfyce9Wk_m36BZG1F-15">
          <mxGeometry y="60" width="140" height="30" as="geometry" />
        </mxCell>
        <mxCell id="h1bzfyce9Wk_m36BZG1F-18" value="dateLost" style="text;strokeColor=none;fillColor=none;align=left;verticalAlign=middle;spacingLeft=4;spacingRight=4;overflow=hidden;points=[[0,0.5],[1,0.5]];portConstraint=eastwest;rotatable=0;whiteSpace=wrap;html=1;" vertex="1" parent="h1bzfyce9Wk_m36BZG1F-15">
          <mxGeometry y="90" width="140" height="30" as="geometry" />
        </mxCell>
        <mxCell id="h1bzfyce9Wk_m36BZG1F-19" value="dateFind" style="text;strokeColor=none;fillColor=none;align=left;verticalAlign=middle;spacingLeft=4;spacingRight=4;overflow=hidden;points=[[0,0.5],[1,0.5]];portConstraint=eastwest;rotatable=0;whiteSpace=wrap;html=1;" vertex="1" parent="h1bzfyce9Wk_m36BZG1F-15">
          <mxGeometry y="120" width="140" height="30" as="geometry" />
        </mxCell>
        <mxCell id="h1bzfyce9Wk_m36BZG1F-20" value="place" style="text;strokeColor=none;fillColor=none;align=left;verticalAlign=middle;spacingLeft=4;spacingRight=4;overflow=hidden;points=[[0,0.5],[1,0.5]];portConstraint=eastwest;rotatable=0;whiteSpace=wrap;html=1;" vertex="1" parent="h1bzfyce9Wk_m36BZG1F-15">
          <mxGeometry y="150" width="140" height="30" as="geometry" />
        </mxCell>
        <mxCell id="h1bzfyce9Wk_m36BZG1F-21" value="Address" style="swimlane;fontStyle=0;childLayout=stackLayout;horizontal=1;startSize=30;horizontalStack=0;resizeParent=1;resizeParentMax=0;resizeLast=0;collapsible=1;marginBottom=0;whiteSpace=wrap;html=1;" vertex="1" parent="1">
          <mxGeometry x="710" y="648" width="140" height="180" as="geometry" />
        </mxCell>
        <mxCell id="h1bzfyce9Wk_m36BZG1F-22" value="&lt;u&gt;id&lt;/u&gt;" style="text;strokeColor=none;fillColor=none;align=left;verticalAlign=middle;spacingLeft=4;spacingRight=4;overflow=hidden;points=[[0,0.5],[1,0.5]];portConstraint=eastwest;rotatable=0;whiteSpace=wrap;html=1;" vertex="1" parent="h1bzfyce9Wk_m36BZG1F-21">
          <mxGeometry y="30" width="140" height="30" as="geometry" />
        </mxCell>
        <mxCell id="h1bzfyce9Wk_m36BZG1F-23" value="city" style="text;strokeColor=none;fillColor=none;align=left;verticalAlign=middle;spacingLeft=4;spacingRight=4;overflow=hidden;points=[[0,0.5],[1,0.5]];portConstraint=eastwest;rotatable=0;whiteSpace=wrap;html=1;" vertex="1" parent="h1bzfyce9Wk_m36BZG1F-21">
          <mxGeometry y="60" width="140" height="30" as="geometry" />
        </mxCell>
        <mxCell id="h1bzfyce9Wk_m36BZG1F-24" value="street" style="text;strokeColor=none;fillColor=none;align=left;verticalAlign=middle;spacingLeft=4;spacingRight=4;overflow=hidden;points=[[0,0.5],[1,0.5]];portConstraint=eastwest;rotatable=0;whiteSpace=wrap;html=1;" vertex="1" parent="h1bzfyce9Wk_m36BZG1F-21">
          <mxGeometry y="90" width="140" height="30" as="geometry" />
        </mxCell>
        <mxCell id="h1bzfyce9Wk_m36BZG1F-25" value="number" style="text;strokeColor=none;fillColor=none;align=left;verticalAlign=middle;spacingLeft=4;spacingRight=4;overflow=hidden;points=[[0,0.5],[1,0.5]];portConstraint=eastwest;rotatable=0;whiteSpace=wrap;html=1;" vertex="1" parent="h1bzfyce9Wk_m36BZG1F-21">
          <mxGeometry y="120" width="140" height="30" as="geometry" />
        </mxCell>
        <mxCell id="h1bzfyce9Wk_m36BZG1F-26" value="postalCode" style="text;strokeColor=none;fillColor=none;align=left;verticalAlign=middle;spacingLeft=4;spacingRight=4;overflow=hidden;points=[[0,0.5],[1,0.5]];portConstraint=eastwest;rotatable=0;whiteSpace=wrap;html=1;" vertex="1" parent="h1bzfyce9Wk_m36BZG1F-21">
          <mxGeometry y="150" width="140" height="30" as="geometry" />
        </mxCell>
        <mxCell id="h1bzfyce9Wk_m36BZG1F-28" value="" style="endArrow=none;html=1;rounded=0;exitX=1.014;exitY=0.105;exitDx=0;exitDy=0;exitPerimeter=0;entryX=0;entryY=0.095;entryDx=0;entryDy=0;entryPerimeter=0;" edge="1" parent="1" source="h1bzfyce9Wk_m36BZG1F-1" target="h1bzfyce9Wk_m36BZG1F-8">
          <mxGeometry width="50" height="50" relative="1" as="geometry">
            <mxPoint x="680" y="990" as="sourcePoint" />
            <mxPoint x="730" y="940" as="targetPoint" />
          </mxGeometry>
        </mxCell>
        <mxCell id="h1bzfyce9Wk_m36BZG1F-31" value="0,n" style="text;html=1;align=center;verticalAlign=middle;resizable=0;points=[];autosize=1;strokeColor=none;fillColor=none;" vertex="1" parent="1">
          <mxGeometry x="330" y="640" width="40" height="30" as="geometry" />
        </mxCell>
        <mxCell id="h1bzfyce9Wk_m36BZG1F-33" value="1,1" style="text;html=1;align=center;verticalAlign=middle;resizable=0;points=[];autosize=1;strokeColor=none;fillColor=none;" vertex="1" parent="1">
          <mxGeometry x="230" y="640" width="40" height="30" as="geometry" />
        </mxCell>
        <mxCell id="h1bzfyce9Wk_m36BZG1F-37" value="Animal" style="swimlane;fontStyle=0;childLayout=stackLayout;horizontal=1;startSize=30;horizontalStack=0;resizeParent=1;resizeParentMax=0;resizeLast=0;collapsible=1;marginBottom=0;whiteSpace=wrap;html=1;" vertex="1" parent="1">
          <mxGeometry x="280" y="1402" width="140" height="180" as="geometry" />
        </mxCell>
        <mxCell id="h1bzfyce9Wk_m36BZG1F-38" value="&lt;u&gt;id&lt;/u&gt;" style="text;strokeColor=none;fillColor=none;align=left;verticalAlign=middle;spacingLeft=4;spacingRight=4;overflow=hidden;points=[[0,0.5],[1,0.5]];portConstraint=eastwest;rotatable=0;whiteSpace=wrap;html=1;" vertex="1" parent="h1bzfyce9Wk_m36BZG1F-37">
          <mxGeometry y="30" width="140" height="30" as="geometry" />
        </mxCell>
        <mxCell id="h1bzfyce9Wk_m36BZG1F-39" value="name" style="text;strokeColor=none;fillColor=none;align=left;verticalAlign=middle;spacingLeft=4;spacingRight=4;overflow=hidden;points=[[0,0.5],[1,0.5]];portConstraint=eastwest;rotatable=0;whiteSpace=wrap;html=1;" vertex="1" parent="h1bzfyce9Wk_m36BZG1F-37">
          <mxGeometry y="60" width="140" height="30" as="geometry" />
        </mxCell>
        <mxCell id="h1bzfyce9Wk_m36BZG1F-40" value="breed" style="text;strokeColor=none;fillColor=none;align=left;verticalAlign=middle;spacingLeft=4;spacingRight=4;overflow=hidden;points=[[0,0.5],[1,0.5]];portConstraint=eastwest;rotatable=0;whiteSpace=wrap;html=1;" vertex="1" parent="h1bzfyce9Wk_m36BZG1F-37">
          <mxGeometry y="90" width="140" height="30" as="geometry" />
        </mxCell>
        <mxCell id="h1bzfyce9Wk_m36BZG1F-41" value="picture" style="text;strokeColor=none;fillColor=none;align=left;verticalAlign=middle;spacingLeft=4;spacingRight=4;overflow=hidden;points=[[0,0.5],[1,0.5]];portConstraint=eastwest;rotatable=0;whiteSpace=wrap;html=1;" vertex="1" parent="h1bzfyce9Wk_m36BZG1F-37">
          <mxGeometry y="120" width="140" height="30" as="geometry" />
        </mxCell>
        <mxCell id="h1bzfyce9Wk_m36BZG1F-42" value="age" style="text;strokeColor=none;fillColor=none;align=left;verticalAlign=middle;spacingLeft=4;spacingRight=4;overflow=hidden;points=[[0,0.5],[1,0.5]];portConstraint=eastwest;rotatable=0;whiteSpace=wrap;html=1;" vertex="1" parent="h1bzfyce9Wk_m36BZG1F-37">
          <mxGeometry y="150" width="140" height="30" as="geometry" />
        </mxCell>
        <mxCell id="h1bzfyce9Wk_m36BZG1F-43" value="Person" style="swimlane;fontStyle=0;childLayout=stackLayout;horizontal=1;startSize=30;horizontalStack=0;resizeParent=1;resizeParentMax=0;resizeLast=0;collapsible=1;marginBottom=0;whiteSpace=wrap;html=1;" vertex="1" parent="1">
          <mxGeometry x="820" y="1400" width="140" height="180" as="geometry" />
        </mxCell>
        <mxCell id="h1bzfyce9Wk_m36BZG1F-44" value="&lt;u&gt;id&lt;/u&gt;" style="text;strokeColor=none;fillColor=none;align=left;verticalAlign=middle;spacingLeft=4;spacingRight=4;overflow=hidden;points=[[0,0.5],[1,0.5]];portConstraint=eastwest;rotatable=0;whiteSpace=wrap;html=1;" vertex="1" parent="h1bzfyce9Wk_m36BZG1F-43">
          <mxGeometry y="30" width="140" height="30" as="geometry" />
        </mxCell>
        <mxCell id="h1bzfyce9Wk_m36BZG1F-45" value="name" style="text;strokeColor=none;fillColor=none;align=left;verticalAlign=middle;spacingLeft=4;spacingRight=4;overflow=hidden;points=[[0,0.5],[1,0.5]];portConstraint=eastwest;rotatable=0;whiteSpace=wrap;html=1;" vertex="1" parent="h1bzfyce9Wk_m36BZG1F-43">
          <mxGeometry y="60" width="140" height="30" as="geometry" />
        </mxCell>
        <mxCell id="h1bzfyce9Wk_m36BZG1F-46" value="lastName" style="text;strokeColor=none;fillColor=none;align=left;verticalAlign=middle;spacingLeft=4;spacingRight=4;overflow=hidden;points=[[0,0.5],[1,0.5]];portConstraint=eastwest;rotatable=0;whiteSpace=wrap;html=1;" vertex="1" parent="h1bzfyce9Wk_m36BZG1F-43">
          <mxGeometry y="90" width="140" height="30" as="geometry" />
        </mxCell>
        <mxCell id="h1bzfyce9Wk_m36BZG1F-47" value="email" style="text;strokeColor=none;fillColor=none;align=left;verticalAlign=middle;spacingLeft=4;spacingRight=4;overflow=hidden;points=[[0,0.5],[1,0.5]];portConstraint=eastwest;rotatable=0;whiteSpace=wrap;html=1;" vertex="1" parent="h1bzfyce9Wk_m36BZG1F-43">
          <mxGeometry y="120" width="140" height="30" as="geometry" />
        </mxCell>
        <mxCell id="h1bzfyce9Wk_m36BZG1F-48" value="password" style="text;strokeColor=none;fillColor=none;align=left;verticalAlign=middle;spacingLeft=4;spacingRight=4;overflow=hidden;points=[[0,0.5],[1,0.5]];portConstraint=eastwest;rotatable=0;whiteSpace=wrap;html=1;" vertex="1" parent="h1bzfyce9Wk_m36BZG1F-43">
          <mxGeometry y="150" width="140" height="30" as="geometry" />
        </mxCell>
        <mxCell id="h1bzfyce9Wk_m36BZG1F-49" value="Alert" style="swimlane;fontStyle=0;childLayout=stackLayout;horizontal=1;startSize=30;horizontalStack=0;resizeParent=1;resizeParentMax=0;resizeLast=0;collapsible=1;marginBottom=0;whiteSpace=wrap;html=1;" vertex="1" parent="1">
          <mxGeometry x="130" y="1912" width="140" height="150" as="geometry" />
        </mxCell>
        <mxCell id="h1bzfyce9Wk_m36BZG1F-50" value="&lt;u&gt;id&lt;/u&gt;" style="text;strokeColor=none;fillColor=none;align=left;verticalAlign=middle;spacingLeft=4;spacingRight=4;overflow=hidden;points=[[0,0.5],[1,0.5]];portConstraint=eastwest;rotatable=0;whiteSpace=wrap;html=1;" vertex="1" parent="h1bzfyce9Wk_m36BZG1F-49">
          <mxGeometry y="30" width="140" height="30" as="geometry" />
        </mxCell>
        <mxCell id="h1bzfyce9Wk_m36BZG1F-51" value="dateLost" style="text;strokeColor=none;fillColor=none;align=left;verticalAlign=middle;spacingLeft=4;spacingRight=4;overflow=hidden;points=[[0,0.5],[1,0.5]];portConstraint=eastwest;rotatable=0;whiteSpace=wrap;html=1;" vertex="1" parent="h1bzfyce9Wk_m36BZG1F-49">
          <mxGeometry y="60" width="140" height="30" as="geometry" />
        </mxCell>
        <mxCell id="h1bzfyce9Wk_m36BZG1F-52" value="dateFind" style="text;strokeColor=none;fillColor=none;align=left;verticalAlign=middle;spacingLeft=4;spacingRight=4;overflow=hidden;points=[[0,0.5],[1,0.5]];portConstraint=eastwest;rotatable=0;whiteSpace=wrap;html=1;" vertex="1" parent="h1bzfyce9Wk_m36BZG1F-49">
          <mxGeometry y="90" width="140" height="30" as="geometry" />
        </mxCell>
        <mxCell id="h1bzfyce9Wk_m36BZG1F-53" value="place" style="text;strokeColor=none;fillColor=none;align=left;verticalAlign=middle;spacingLeft=4;spacingRight=4;overflow=hidden;points=[[0,0.5],[1,0.5]];portConstraint=eastwest;rotatable=0;whiteSpace=wrap;html=1;" vertex="1" parent="h1bzfyce9Wk_m36BZG1F-49">
          <mxGeometry y="120" width="140" height="30" as="geometry" />
        </mxCell>
        <mxCell id="h1bzfyce9Wk_m36BZG1F-54" value="Address" style="swimlane;fontStyle=0;childLayout=stackLayout;horizontal=1;startSize=30;horizontalStack=0;resizeParent=1;resizeParentMax=0;resizeLast=0;collapsible=1;marginBottom=0;whiteSpace=wrap;html=1;" vertex="1" parent="1">
          <mxGeometry x="820" y="1832" width="140" height="180" as="geometry" />
        </mxCell>
        <mxCell id="h1bzfyce9Wk_m36BZG1F-55" value="&lt;u&gt;id&lt;/u&gt;" style="text;strokeColor=none;fillColor=none;align=left;verticalAlign=middle;spacingLeft=4;spacingRight=4;overflow=hidden;points=[[0,0.5],[1,0.5]];portConstraint=eastwest;rotatable=0;whiteSpace=wrap;html=1;" vertex="1" parent="h1bzfyce9Wk_m36BZG1F-54">
          <mxGeometry y="30" width="140" height="30" as="geometry" />
        </mxCell>
        <mxCell id="h1bzfyce9Wk_m36BZG1F-56" value="city" style="text;strokeColor=none;fillColor=none;align=left;verticalAlign=middle;spacingLeft=4;spacingRight=4;overflow=hidden;points=[[0,0.5],[1,0.5]];portConstraint=eastwest;rotatable=0;whiteSpace=wrap;html=1;" vertex="1" parent="h1bzfyce9Wk_m36BZG1F-54">
          <mxGeometry y="60" width="140" height="30" as="geometry" />
        </mxCell>
        <mxCell id="h1bzfyce9Wk_m36BZG1F-57" value="street" style="text;strokeColor=none;fillColor=none;align=left;verticalAlign=middle;spacingLeft=4;spacingRight=4;overflow=hidden;points=[[0,0.5],[1,0.5]];portConstraint=eastwest;rotatable=0;whiteSpace=wrap;html=1;" vertex="1" parent="h1bzfyce9Wk_m36BZG1F-54">
          <mxGeometry y="90" width="140" height="30" as="geometry" />
        </mxCell>
        <mxCell id="h1bzfyce9Wk_m36BZG1F-58" value="number" style="text;strokeColor=none;fillColor=none;align=left;verticalAlign=middle;spacingLeft=4;spacingRight=4;overflow=hidden;points=[[0,0.5],[1,0.5]];portConstraint=eastwest;rotatable=0;whiteSpace=wrap;html=1;" vertex="1" parent="h1bzfyce9Wk_m36BZG1F-54">
          <mxGeometry y="120" width="140" height="30" as="geometry" />
        </mxCell>
        <mxCell id="h1bzfyce9Wk_m36BZG1F-59" value="postalCode" style="text;strokeColor=none;fillColor=none;align=left;verticalAlign=middle;spacingLeft=4;spacingRight=4;overflow=hidden;points=[[0,0.5],[1,0.5]];portConstraint=eastwest;rotatable=0;whiteSpace=wrap;html=1;" vertex="1" parent="h1bzfyce9Wk_m36BZG1F-54">
          <mxGeometry y="150" width="140" height="30" as="geometry" />
        </mxCell>
        <mxCell id="h1bzfyce9Wk_m36BZG1F-60" value="1,n" style="text;html=1;align=center;verticalAlign=middle;resizable=0;points=[];autosize=1;strokeColor=none;fillColor=none;" vertex="1" parent="1">
          <mxGeometry x="890" y="1802" width="40" height="30" as="geometry" />
        </mxCell>
        <mxCell id="h1bzfyce9Wk_m36BZG1F-61" value="0,n" style="text;html=1;align=center;verticalAlign=middle;resizable=0;points=[];autosize=1;strokeColor=none;fillColor=none;" vertex="1" parent="1">
          <mxGeometry x="780" y="1422" width="40" height="30" as="geometry" />
        </mxCell>
        <mxCell id="h1bzfyce9Wk_m36BZG1F-62" value="1,n" style="text;html=1;align=center;verticalAlign=middle;resizable=0;points=[];autosize=1;strokeColor=none;fillColor=none;" vertex="1" parent="1">
          <mxGeometry x="260" y="1582" width="40" height="30" as="geometry" />
        </mxCell>
        <mxCell id="h1bzfyce9Wk_m36BZG1F-63" value="1,1" style="text;html=1;align=center;verticalAlign=middle;resizable=0;points=[];autosize=1;strokeColor=none;fillColor=none;" vertex="1" parent="1">
          <mxGeometry x="420" y="1422" width="40" height="30" as="geometry" />
        </mxCell>
        <mxCell id="h1bzfyce9Wk_m36BZG1F-64" value="1,1" style="text;html=1;align=center;verticalAlign=middle;resizable=0;points=[];autosize=1;strokeColor=none;fillColor=none;" vertex="1" parent="1">
          <mxGeometry x="890" y="1580" width="40" height="30" as="geometry" />
        </mxCell>
        <mxCell id="h1bzfyce9Wk_m36BZG1F-65" value="1,1" style="text;html=1;align=center;verticalAlign=middle;resizable=0;points=[];autosize=1;strokeColor=none;fillColor=none;" vertex="1" parent="1">
          <mxGeometry x="110" y="1882" width="40" height="30" as="geometry" />
        </mxCell>
        <mxCell id="h1bzfyce9Wk_m36BZG1F-70" value="" style="endArrow=none;html=1;rounded=0;exitX=0.5;exitY=1;exitDx=0;exitDy=0;entryX=0.399;entryY=-0.033;entryDx=0;entryDy=0;entryPerimeter=0;" edge="1" parent="1" source="h1bzfyce9Wk_m36BZG1F-121" target="h1bzfyce9Wk_m36BZG1F-49">
          <mxGeometry width="50" height="50" relative="1" as="geometry">
            <mxPoint x="430" y="1802" as="sourcePoint" />
            <mxPoint x="371.9200000000001" y="1975.89" as="targetPoint" />
          </mxGeometry>
        </mxCell>
        <mxCell id="h1bzfyce9Wk_m36BZG1F-74" value="Race" style="swimlane;fontStyle=0;childLayout=stackLayout;horizontal=1;startSize=30;horizontalStack=0;resizeParent=1;resizeParentMax=0;resizeLast=0;collapsible=1;marginBottom=0;whiteSpace=wrap;html=1;" vertex="1" parent="1">
          <mxGeometry x="-320" y="590" width="140" height="90" as="geometry" />
        </mxCell>
        <mxCell id="h1bzfyce9Wk_m36BZG1F-75" value="&lt;u&gt;id&lt;/u&gt;" style="text;strokeColor=none;fillColor=none;align=left;verticalAlign=middle;spacingLeft=4;spacingRight=4;overflow=hidden;points=[[0,0.5],[1,0.5]];portConstraint=eastwest;rotatable=0;whiteSpace=wrap;html=1;" vertex="1" parent="h1bzfyce9Wk_m36BZG1F-74">
          <mxGeometry y="30" width="140" height="30" as="geometry" />
        </mxCell>
        <mxCell id="h1bzfyce9Wk_m36BZG1F-76" value="race" style="text;strokeColor=none;fillColor=none;align=left;verticalAlign=middle;spacingLeft=4;spacingRight=4;overflow=hidden;points=[[0,0.5],[1,0.5]];portConstraint=eastwest;rotatable=0;whiteSpace=wrap;html=1;" vertex="1" parent="h1bzfyce9Wk_m36BZG1F-74">
          <mxGeometry y="60" width="140" height="30" as="geometry" />
        </mxCell>
        <mxCell id="h1bzfyce9Wk_m36BZG1F-78" value="Colour" style="swimlane;fontStyle=0;childLayout=stackLayout;horizontal=1;startSize=30;horizontalStack=0;resizeParent=1;resizeParentMax=0;resizeLast=0;collapsible=1;marginBottom=0;whiteSpace=wrap;html=1;" vertex="1" parent="1">
          <mxGeometry x="-410" y="738" width="140" height="90" as="geometry" />
        </mxCell>
        <mxCell id="h1bzfyce9Wk_m36BZG1F-79" value="&lt;u&gt;id&lt;/u&gt;" style="text;strokeColor=none;fillColor=none;align=left;verticalAlign=middle;spacingLeft=4;spacingRight=4;overflow=hidden;points=[[0,0.5],[1,0.5]];portConstraint=eastwest;rotatable=0;whiteSpace=wrap;html=1;" vertex="1" parent="h1bzfyce9Wk_m36BZG1F-78">
          <mxGeometry y="30" width="140" height="30" as="geometry" />
        </mxCell>
        <mxCell id="h1bzfyce9Wk_m36BZG1F-80" value="colour" style="text;strokeColor=none;fillColor=none;align=left;verticalAlign=middle;spacingLeft=4;spacingRight=4;overflow=hidden;points=[[0,0.5],[1,0.5]];portConstraint=eastwest;rotatable=0;whiteSpace=wrap;html=1;" vertex="1" parent="h1bzfyce9Wk_m36BZG1F-78">
          <mxGeometry y="60" width="140" height="30" as="geometry" />
        </mxCell>
        <mxCell id="h1bzfyce9Wk_m36BZG1F-82" value="" style="endArrow=none;html=1;rounded=0;exitX=1;exitY=0.25;exitDx=0;exitDy=0;entryX=-0.029;entryY=0.081;entryDx=0;entryDy=0;entryPerimeter=0;" edge="1" parent="1" source="h1bzfyce9Wk_m36BZG1F-74" target="h1bzfyce9Wk_m36BZG1F-1">
          <mxGeometry width="50" height="50" relative="1" as="geometry">
            <mxPoint x="60" y="930" as="sourcePoint" />
            <mxPoint x="110" y="880" as="targetPoint" />
          </mxGeometry>
        </mxCell>
        <mxCell id="h1bzfyce9Wk_m36BZG1F-84" value="1,n" style="text;html=1;align=center;verticalAlign=middle;resizable=0;points=[];autosize=1;strokeColor=none;fillColor=none;" vertex="1" parent="1">
          <mxGeometry x="-190" y="580" width="40" height="30" as="geometry" />
        </mxCell>
        <mxCell id="h1bzfyce9Wk_m36BZG1F-85" value="1,1" style="text;html=1;align=center;verticalAlign=middle;resizable=0;points=[];autosize=1;strokeColor=none;fillColor=none;" vertex="1" parent="1">
          <mxGeometry x="50" y="630" width="40" height="30" as="geometry" />
        </mxCell>
        <mxCell id="h1bzfyce9Wk_m36BZG1F-86" value="Recherche" style="swimlane;fontStyle=0;childLayout=stackLayout;horizontal=1;startSize=30;horizontalStack=0;resizeParent=1;resizeParentMax=0;resizeLast=0;collapsible=1;marginBottom=0;whiteSpace=wrap;html=1;" vertex="1" parent="1">
          <mxGeometry x="240" y="1020" width="140" height="180" as="geometry" />
        </mxCell>
        <mxCell id="h1bzfyce9Wk_m36BZG1F-87" value="id" style="text;strokeColor=none;fillColor=none;align=left;verticalAlign=middle;spacingLeft=4;spacingRight=4;overflow=hidden;points=[[0,0.5],[1,0.5]];portConstraint=eastwest;rotatable=0;whiteSpace=wrap;html=1;" vertex="1" parent="h1bzfyce9Wk_m36BZG1F-86">
          <mxGeometry y="30" width="140" height="30" as="geometry" />
        </mxCell>
        <mxCell id="h1bzfyce9Wk_m36BZG1F-88" value="idAnimal*" style="text;strokeColor=none;fillColor=none;align=left;verticalAlign=middle;spacingLeft=4;spacingRight=4;overflow=hidden;points=[[0,0.5],[1,0.5]];portConstraint=eastwest;rotatable=0;whiteSpace=wrap;html=1;" vertex="1" parent="h1bzfyce9Wk_m36BZG1F-86">
          <mxGeometry y="60" width="140" height="30" as="geometry" />
        </mxCell>
        <mxCell id="h1bzfyce9Wk_m36BZG1F-89" value="dateLost" style="text;strokeColor=none;fillColor=none;align=left;verticalAlign=middle;spacingLeft=4;spacingRight=4;overflow=hidden;points=[[0,0.5],[1,0.5]];portConstraint=eastwest;rotatable=0;whiteSpace=wrap;html=1;" vertex="1" parent="h1bzfyce9Wk_m36BZG1F-86">
          <mxGeometry y="90" width="140" height="30" as="geometry" />
        </mxCell>
        <mxCell id="h1bzfyce9Wk_m36BZG1F-105" value="dateFind" style="text;strokeColor=none;fillColor=none;align=left;verticalAlign=middle;spacingLeft=4;spacingRight=4;overflow=hidden;points=[[0,0.5],[1,0.5]];portConstraint=eastwest;rotatable=0;whiteSpace=wrap;html=1;" vertex="1" parent="h1bzfyce9Wk_m36BZG1F-86">
          <mxGeometry y="120" width="140" height="30" as="geometry" />
        </mxCell>
        <mxCell id="h1bzfyce9Wk_m36BZG1F-106" value="Place" style="text;strokeColor=none;fillColor=none;align=left;verticalAlign=middle;spacingLeft=4;spacingRight=4;overflow=hidden;points=[[0,0.5],[1,0.5]];portConstraint=eastwest;rotatable=0;whiteSpace=wrap;html=1;" vertex="1" parent="h1bzfyce9Wk_m36BZG1F-86">
          <mxGeometry y="150" width="140" height="30" as="geometry" />
        </mxCell>
        <mxCell id="h1bzfyce9Wk_m36BZG1F-92" value="AnimalColour" style="swimlane;fontStyle=0;childLayout=stackLayout;horizontal=1;startSize=30;horizontalStack=0;resizeParent=1;resizeParentMax=0;resizeLast=0;collapsible=1;marginBottom=0;whiteSpace=wrap;html=1;" vertex="1" parent="1">
          <mxGeometry x="-160" y="738" width="140" height="120" as="geometry" />
        </mxCell>
        <mxCell id="h1bzfyce9Wk_m36BZG1F-93" value="&lt;u&gt;id&lt;/u&gt;" style="text;strokeColor=none;fillColor=none;align=left;verticalAlign=middle;spacingLeft=4;spacingRight=4;overflow=hidden;points=[[0,0.5],[1,0.5]];portConstraint=eastwest;rotatable=0;whiteSpace=wrap;html=1;" vertex="1" parent="h1bzfyce9Wk_m36BZG1F-92">
          <mxGeometry y="30" width="140" height="30" as="geometry" />
        </mxCell>
        <mxCell id="h1bzfyce9Wk_m36BZG1F-94" value="idAnimal*" style="text;strokeColor=none;fillColor=none;align=left;verticalAlign=middle;spacingLeft=4;spacingRight=4;overflow=hidden;points=[[0,0.5],[1,0.5]];portConstraint=eastwest;rotatable=0;whiteSpace=wrap;html=1;" vertex="1" parent="h1bzfyce9Wk_m36BZG1F-92">
          <mxGeometry y="60" width="140" height="30" as="geometry" />
        </mxCell>
        <mxCell id="h1bzfyce9Wk_m36BZG1F-95" value="idColour*" style="text;strokeColor=none;fillColor=none;align=left;verticalAlign=middle;spacingLeft=4;spacingRight=4;overflow=hidden;points=[[0,0.5],[1,0.5]];portConstraint=eastwest;rotatable=0;whiteSpace=wrap;html=1;" vertex="1" parent="h1bzfyce9Wk_m36BZG1F-92">
          <mxGeometry y="90" width="140" height="30" as="geometry" />
        </mxCell>
        <mxCell id="h1bzfyce9Wk_m36BZG1F-96" value="" style="endArrow=none;html=1;rounded=0;exitX=1;exitY=0.25;exitDx=0;exitDy=0;entryX=-0.029;entryY=0.192;entryDx=0;entryDy=0;entryPerimeter=0;" edge="1" parent="1" source="h1bzfyce9Wk_m36BZG1F-78" target="h1bzfyce9Wk_m36BZG1F-92">
          <mxGeometry width="50" height="50" relative="1" as="geometry">
            <mxPoint x="60" y="930" as="sourcePoint" />
            <mxPoint x="110" y="880" as="targetPoint" />
          </mxGeometry>
        </mxCell>
        <mxCell id="h1bzfyce9Wk_m36BZG1F-97" value="" style="endArrow=none;html=1;rounded=0;exitX=1.007;exitY=0.142;exitDx=0;exitDy=0;exitPerimeter=0;entryX=0;entryY=0.5;entryDx=0;entryDy=0;" edge="1" parent="1" source="h1bzfyce9Wk_m36BZG1F-92" target="h1bzfyce9Wk_m36BZG1F-90">
          <mxGeometry width="50" height="50" relative="1" as="geometry">
            <mxPoint x="60" y="930" as="sourcePoint" />
            <mxPoint x="110" y="880" as="targetPoint" />
          </mxGeometry>
        </mxCell>
        <mxCell id="h1bzfyce9Wk_m36BZG1F-98" value="1,n" style="text;html=1;align=center;verticalAlign=middle;resizable=0;points=[];autosize=1;strokeColor=none;fillColor=none;" vertex="1" parent="1">
          <mxGeometry x="-280" y="738" width="40" height="30" as="geometry" />
        </mxCell>
        <mxCell id="h1bzfyce9Wk_m36BZG1F-99" value="1,n" style="text;html=1;align=center;verticalAlign=middle;resizable=0;points=[];autosize=1;strokeColor=none;fillColor=none;" vertex="1" parent="1">
          <mxGeometry x="50" y="730" width="40" height="30" as="geometry" />
        </mxCell>
        <mxCell id="h1bzfyce9Wk_m36BZG1F-101" value="" style="endArrow=none;html=1;rounded=0;entryX=-0.007;entryY=0.106;entryDx=0;entryDy=0;entryPerimeter=0;exitX=0.993;exitY=0.081;exitDx=0;exitDy=0;exitPerimeter=0;" edge="1" parent="1" source="h1bzfyce9Wk_m36BZG1F-8" target="h1bzfyce9Wk_m36BZG1F-21">
          <mxGeometry width="50" height="50" relative="1" as="geometry">
            <mxPoint x="330" y="940" as="sourcePoint" />
            <mxPoint x="380" y="890" as="targetPoint" />
          </mxGeometry>
        </mxCell>
        <mxCell id="h1bzfyce9Wk_m36BZG1F-102" value="1,1" style="text;html=1;align=center;verticalAlign=middle;resizable=0;points=[];autosize=1;strokeColor=none;fillColor=none;" vertex="1" parent="1">
          <mxGeometry x="500" y="640" width="40" height="30" as="geometry" />
        </mxCell>
        <mxCell id="h1bzfyce9Wk_m36BZG1F-103" value="1,n" style="text;html=1;align=center;verticalAlign=middle;resizable=0;points=[];autosize=1;strokeColor=none;fillColor=none;" vertex="1" parent="1">
          <mxGeometry x="670" y="640" width="40" height="30" as="geometry" />
        </mxCell>
        <mxCell id="h1bzfyce9Wk_m36BZG1F-107" value="" style="endArrow=none;html=1;rounded=0;entryX=0.007;entryY=1.067;entryDx=0;entryDy=0;entryPerimeter=0;exitX=0.5;exitY=0;exitDx=0;exitDy=0;" edge="1" parent="1" source="h1bzfyce9Wk_m36BZG1F-15" target="h1bzfyce9Wk_m36BZG1F-7">
          <mxGeometry width="50" height="50" relative="1" as="geometry">
            <mxPoint x="30" y="1000" as="sourcePoint" />
            <mxPoint x="80" y="950" as="targetPoint" />
          </mxGeometry>
        </mxCell>
        <mxCell id="h1bzfyce9Wk_m36BZG1F-108" value="" style="endArrow=none;html=1;rounded=0;entryX=0.5;entryY=0;entryDx=0;entryDy=0;exitX=1;exitY=1.233;exitDx=0;exitDy=0;exitPerimeter=0;" edge="1" parent="1" source="h1bzfyce9Wk_m36BZG1F-7" target="h1bzfyce9Wk_m36BZG1F-86">
          <mxGeometry width="50" height="50" relative="1" as="geometry">
            <mxPoint x="30" y="1000" as="sourcePoint" />
            <mxPoint x="80" y="950" as="targetPoint" />
          </mxGeometry>
        </mxCell>
        <mxCell id="h1bzfyce9Wk_m36BZG1F-109" value="1,1" style="text;html=1;align=center;verticalAlign=middle;resizable=0;points=[];autosize=1;strokeColor=none;fillColor=none;" vertex="1" parent="1">
          <mxGeometry x="300" y="990" width="40" height="30" as="geometry" />
        </mxCell>
        <mxCell id="h1bzfyce9Wk_m36BZG1F-110" value="1,n" style="text;html=1;align=center;verticalAlign=middle;resizable=0;points=[];autosize=1;strokeColor=none;fillColor=none;" vertex="1" parent="1">
          <mxGeometry x="220" y="870" width="40" height="30" as="geometry" />
        </mxCell>
        <mxCell id="h1bzfyce9Wk_m36BZG1F-111" value="1,1" style="text;html=1;align=center;verticalAlign=middle;resizable=0;points=[];autosize=1;strokeColor=none;fillColor=none;" vertex="1" parent="1">
          <mxGeometry x="-20" y="990" width="40" height="30" as="geometry" />
        </mxCell>
        <mxCell id="h1bzfyce9Wk_m36BZG1F-112" value="1,n" style="text;html=1;align=center;verticalAlign=middle;resizable=0;points=[];autosize=1;strokeColor=none;fillColor=none;" vertex="1" parent="1">
          <mxGeometry x="50" y="880" width="40" height="30" as="geometry" />
        </mxCell>
        <mxCell id="h1bzfyce9Wk_m36BZG1F-113" value="Race : &lt;u&gt;id&lt;/u&gt;, race&lt;br&gt;Colour : &lt;u&gt;id&lt;/u&gt;, colour&lt;br&gt;Address : &lt;u&gt;id&lt;/u&gt;, city, street, number, postalCode&lt;br&gt;Person : &lt;u&gt;id&lt;/u&gt;, *idAddress, name, lastName, email, password, phone&lt;br&gt;Animal : &lt;u&gt;id&lt;/u&gt;, *idPerson, *idRace, name, breed, picture, birth&lt;br&gt;AnimalColour : &lt;u&gt;id&lt;/u&gt;, *idAnimal, *idColour&lt;br&gt;Alert : &lt;u&gt;id&lt;/u&gt;, *idAnimal, dateLost, dateFind, place&lt;br&gt;Recherche : &lt;u&gt;id&lt;/u&gt;, *idAnimal, dateLost, dateFind, place" style="text;html=1;align=center;verticalAlign=middle;resizable=0;points=[];autosize=1;strokeColor=none;fillColor=none;" vertex="1" parent="1">
          <mxGeometry x="430" y="950" width="370" height="130" as="geometry" />
        </mxCell>
        <mxCell id="h1bzfyce9Wk_m36BZG1F-115" value="to possess" style="rhombus;whiteSpace=wrap;html=1;" vertex="1" parent="1">
          <mxGeometry x="600" y="1405" width="80" height="80" as="geometry" />
        </mxCell>
        <mxCell id="h1bzfyce9Wk_m36BZG1F-116" value="" style="endArrow=none;html=1;rounded=0;entryX=0;entryY=0.5;entryDx=0;entryDy=0;exitX=1;exitY=0.5;exitDx=0;exitDy=0;" edge="1" parent="1" source="h1bzfyce9Wk_m36BZG1F-38" target="h1bzfyce9Wk_m36BZG1F-115">
          <mxGeometry width="50" height="50" relative="1" as="geometry">
            <mxPoint x="380" y="1612" as="sourcePoint" />
            <mxPoint x="430" y="1562" as="targetPoint" />
          </mxGeometry>
        </mxCell>
        <mxCell id="h1bzfyce9Wk_m36BZG1F-117" value="" style="endArrow=none;html=1;rounded=0;entryX=0;entryY=0.5;entryDx=0;entryDy=0;exitX=1;exitY=0.5;exitDx=0;exitDy=0;" edge="1" parent="1" source="h1bzfyce9Wk_m36BZG1F-115" target="h1bzfyce9Wk_m36BZG1F-44">
          <mxGeometry width="50" height="50" relative="1" as="geometry">
            <mxPoint x="380" y="1612" as="sourcePoint" />
            <mxPoint x="430" y="1562" as="targetPoint" />
          </mxGeometry>
        </mxCell>
        <mxCell id="h1bzfyce9Wk_m36BZG1F-118" value="to have" style="rhombus;whiteSpace=wrap;html=1;" vertex="1" parent="1">
          <mxGeometry x="850" y="1660" width="80" height="80" as="geometry" />
        </mxCell>
        <mxCell id="h1bzfyce9Wk_m36BZG1F-119" value="" style="endArrow=none;html=1;rounded=0;entryX=0.5;entryY=0;entryDx=0;entryDy=0;exitX=0.5;exitY=1.011;exitDx=0;exitDy=0;exitPerimeter=0;" edge="1" parent="1" source="h1bzfyce9Wk_m36BZG1F-48" target="h1bzfyce9Wk_m36BZG1F-118">
          <mxGeometry width="50" height="50" relative="1" as="geometry">
            <mxPoint x="590" y="1722" as="sourcePoint" />
            <mxPoint x="640" y="1672" as="targetPoint" />
          </mxGeometry>
        </mxCell>
        <mxCell id="h1bzfyce9Wk_m36BZG1F-120" value="" style="endArrow=none;html=1;rounded=0;entryX=0.5;entryY=1;entryDx=0;entryDy=0;exitX=0.5;exitY=0;exitDx=0;exitDy=0;" edge="1" parent="1" source="h1bzfyce9Wk_m36BZG1F-54" target="h1bzfyce9Wk_m36BZG1F-118">
          <mxGeometry width="50" height="50" relative="1" as="geometry">
            <mxPoint x="590" y="1722" as="sourcePoint" />
            <mxPoint x="640" y="1672" as="targetPoint" />
          </mxGeometry>
        </mxCell>
        <mxCell id="h1bzfyce9Wk_m36BZG1F-121" value="emit" style="rhombus;whiteSpace=wrap;html=1;" vertex="1" parent="1">
          <mxGeometry x="240" y="1702" width="80" height="80" as="geometry" />
        </mxCell>
        <mxCell id="h1bzfyce9Wk_m36BZG1F-122" value="emit" style="rhombus;whiteSpace=wrap;html=1;" vertex="1" parent="1">
          <mxGeometry x="390" y="1702" width="80" height="80" as="geometry" />
        </mxCell>
        <mxCell id="h1bzfyce9Wk_m36BZG1F-123" value="" style="endArrow=none;html=1;rounded=0;exitX=0.5;exitY=0;exitDx=0;exitDy=0;entryX=0.167;entryY=1.211;entryDx=0;entryDy=0;entryPerimeter=0;" edge="1" parent="1" source="h1bzfyce9Wk_m36BZG1F-121" target="h1bzfyce9Wk_m36BZG1F-42">
          <mxGeometry width="50" height="50" relative="1" as="geometry">
            <mxPoint x="390" y="1712" as="sourcePoint" />
            <mxPoint x="440" y="1662" as="targetPoint" />
          </mxGeometry>
        </mxCell>
        <mxCell id="h1bzfyce9Wk_m36BZG1F-124" value="Recherche" style="swimlane;fontStyle=0;childLayout=stackLayout;horizontal=1;startSize=30;horizontalStack=0;resizeParent=1;resizeParentMax=0;resizeLast=0;collapsible=1;marginBottom=0;whiteSpace=wrap;html=1;" vertex="1" parent="1">
          <mxGeometry x="410" y="1912" width="140" height="150" as="geometry" />
        </mxCell>
        <mxCell id="h1bzfyce9Wk_m36BZG1F-125" value="&lt;u&gt;id&lt;/u&gt;" style="text;strokeColor=none;fillColor=none;align=left;verticalAlign=middle;spacingLeft=4;spacingRight=4;overflow=hidden;points=[[0,0.5],[1,0.5]];portConstraint=eastwest;rotatable=0;whiteSpace=wrap;html=1;" vertex="1" parent="h1bzfyce9Wk_m36BZG1F-124">
          <mxGeometry y="30" width="140" height="30" as="geometry" />
        </mxCell>
        <mxCell id="h1bzfyce9Wk_m36BZG1F-126" value="dateLost" style="text;strokeColor=none;fillColor=none;align=left;verticalAlign=middle;spacingLeft=4;spacingRight=4;overflow=hidden;points=[[0,0.5],[1,0.5]];portConstraint=eastwest;rotatable=0;whiteSpace=wrap;html=1;" vertex="1" parent="h1bzfyce9Wk_m36BZG1F-124">
          <mxGeometry y="60" width="140" height="30" as="geometry" />
        </mxCell>
        <mxCell id="h1bzfyce9Wk_m36BZG1F-127" value="dateFind" style="text;strokeColor=none;fillColor=none;align=left;verticalAlign=middle;spacingLeft=4;spacingRight=4;overflow=hidden;points=[[0,0.5],[1,0.5]];portConstraint=eastwest;rotatable=0;whiteSpace=wrap;html=1;" vertex="1" parent="h1bzfyce9Wk_m36BZG1F-124">
          <mxGeometry y="90" width="140" height="30" as="geometry" />
        </mxCell>
        <mxCell id="h1bzfyce9Wk_m36BZG1F-128" value="place" style="text;strokeColor=none;fillColor=none;align=left;verticalAlign=middle;spacingLeft=4;spacingRight=4;overflow=hidden;points=[[0,0.5],[1,0.5]];portConstraint=eastwest;rotatable=0;whiteSpace=wrap;html=1;" vertex="1" parent="h1bzfyce9Wk_m36BZG1F-124">
          <mxGeometry y="120" width="140" height="30" as="geometry" />
        </mxCell>
        <mxCell id="h1bzfyce9Wk_m36BZG1F-130" value="" style="endArrow=none;html=1;rounded=0;entryX=0.5;entryY=0;entryDx=0;entryDy=0;exitX=0.814;exitY=1.078;exitDx=0;exitDy=0;exitPerimeter=0;" edge="1" parent="1" source="h1bzfyce9Wk_m36BZG1F-42" target="h1bzfyce9Wk_m36BZG1F-122">
          <mxGeometry width="50" height="50" relative="1" as="geometry">
            <mxPoint x="170" y="1792" as="sourcePoint" />
            <mxPoint x="220" y="1742" as="targetPoint" />
          </mxGeometry>
        </mxCell>
        <mxCell id="h1bzfyce9Wk_m36BZG1F-131" value="" style="endArrow=none;html=1;rounded=0;exitX=0.5;exitY=0;exitDx=0;exitDy=0;entryX=0.5;entryY=1;entryDx=0;entryDy=0;" edge="1" parent="1" source="h1bzfyce9Wk_m36BZG1F-124" target="h1bzfyce9Wk_m36BZG1F-122">
          <mxGeometry width="50" height="50" relative="1" as="geometry">
            <mxPoint x="170" y="1792" as="sourcePoint" />
            <mxPoint x="220" y="1742" as="targetPoint" />
          </mxGeometry>
        </mxCell>
        <mxCell id="h1bzfyce9Wk_m36BZG1F-132" value="Colour" style="swimlane;fontStyle=0;childLayout=stackLayout;horizontal=1;startSize=30;horizontalStack=0;resizeParent=1;resizeParentMax=0;resizeLast=0;collapsible=1;marginBottom=0;whiteSpace=wrap;html=1;" vertex="1" parent="1">
          <mxGeometry x="-200" y="1570" width="140" height="90" as="geometry" />
        </mxCell>
        <mxCell id="h1bzfyce9Wk_m36BZG1F-133" value="&lt;u&gt;id&lt;/u&gt;" style="text;strokeColor=none;fillColor=none;align=left;verticalAlign=middle;spacingLeft=4;spacingRight=4;overflow=hidden;points=[[0,0.5],[1,0.5]];portConstraint=eastwest;rotatable=0;whiteSpace=wrap;html=1;" vertex="1" parent="h1bzfyce9Wk_m36BZG1F-132">
          <mxGeometry y="30" width="140" height="30" as="geometry" />
        </mxCell>
        <mxCell id="h1bzfyce9Wk_m36BZG1F-134" value="colour" style="text;strokeColor=none;fillColor=none;align=left;verticalAlign=middle;spacingLeft=4;spacingRight=4;overflow=hidden;points=[[0,0.5],[1,0.5]];portConstraint=eastwest;rotatable=0;whiteSpace=wrap;html=1;" vertex="1" parent="h1bzfyce9Wk_m36BZG1F-132">
          <mxGeometry y="60" width="140" height="30" as="geometry" />
        </mxCell>
        <mxCell id="h1bzfyce9Wk_m36BZG1F-136" value="to be" style="rhombus;whiteSpace=wrap;html=1;" vertex="1" parent="1">
          <mxGeometry x="70" y="1512" width="80" height="80" as="geometry" />
        </mxCell>
        <mxCell id="h1bzfyce9Wk_m36BZG1F-137" value="" style="endArrow=none;html=1;rounded=0;entryX=1;entryY=0.5;entryDx=0;entryDy=0;exitX=0;exitY=0.5;exitDx=0;exitDy=0;" edge="1" parent="1" source="h1bzfyce9Wk_m36BZG1F-39" target="h1bzfyce9Wk_m36BZG1F-136">
          <mxGeometry width="50" height="50" relative="1" as="geometry">
            <mxPoint x="60" y="1660" as="sourcePoint" />
            <mxPoint x="110" y="1610" as="targetPoint" />
          </mxGeometry>
        </mxCell>
        <mxCell id="h1bzfyce9Wk_m36BZG1F-138" value="" style="endArrow=none;html=1;rounded=0;exitX=1;exitY=0.25;exitDx=0;exitDy=0;entryX=0;entryY=0.5;entryDx=0;entryDy=0;" edge="1" parent="1" source="h1bzfyce9Wk_m36BZG1F-132" target="h1bzfyce9Wk_m36BZG1F-136">
          <mxGeometry width="50" height="50" relative="1" as="geometry">
            <mxPoint x="60" y="1660" as="sourcePoint" />
            <mxPoint x="110" y="1610" as="targetPoint" />
          </mxGeometry>
        </mxCell>
        <mxCell id="h1bzfyce9Wk_m36BZG1F-140" value="to be" style="rhombus;whiteSpace=wrap;html=1;" vertex="1" parent="1">
          <mxGeometry x="90" y="1372" width="80" height="80" as="geometry" />
        </mxCell>
        <mxCell id="h1bzfyce9Wk_m36BZG1F-141" value="Race" style="swimlane;fontStyle=0;childLayout=stackLayout;horizontal=1;startSize=30;horizontalStack=0;resizeParent=1;resizeParentMax=0;resizeLast=0;collapsible=1;marginBottom=0;whiteSpace=wrap;html=1;" vertex="1" parent="1">
          <mxGeometry x="-160" y="1365" width="140" height="90" as="geometry" />
        </mxCell>
        <mxCell id="h1bzfyce9Wk_m36BZG1F-142" value="&lt;u&gt;id&lt;/u&gt;" style="text;strokeColor=none;fillColor=none;align=left;verticalAlign=middle;spacingLeft=4;spacingRight=4;overflow=hidden;points=[[0,0.5],[1,0.5]];portConstraint=eastwest;rotatable=0;whiteSpace=wrap;html=1;" vertex="1" parent="h1bzfyce9Wk_m36BZG1F-141">
          <mxGeometry y="30" width="140" height="30" as="geometry" />
        </mxCell>
        <mxCell id="h1bzfyce9Wk_m36BZG1F-143" value="race" style="text;strokeColor=none;fillColor=none;align=left;verticalAlign=middle;spacingLeft=4;spacingRight=4;overflow=hidden;points=[[0,0.5],[1,0.5]];portConstraint=eastwest;rotatable=0;whiteSpace=wrap;html=1;" vertex="1" parent="h1bzfyce9Wk_m36BZG1F-141">
          <mxGeometry y="60" width="140" height="30" as="geometry" />
        </mxCell>
        <mxCell id="h1bzfyce9Wk_m36BZG1F-145" value="" style="endArrow=none;html=1;rounded=0;entryX=-0.014;entryY=0.1;entryDx=0;entryDy=0;entryPerimeter=0;exitX=1;exitY=0.5;exitDx=0;exitDy=0;" edge="1" parent="1" source="h1bzfyce9Wk_m36BZG1F-140" target="h1bzfyce9Wk_m36BZG1F-37">
          <mxGeometry width="50" height="50" relative="1" as="geometry">
            <mxPoint x="40" y="1560" as="sourcePoint" />
            <mxPoint x="90" y="1510" as="targetPoint" />
          </mxGeometry>
        </mxCell>
        <mxCell id="h1bzfyce9Wk_m36BZG1F-146" value="" style="endArrow=none;html=1;rounded=0;exitX=1;exitY=0.25;exitDx=0;exitDy=0;entryX=0;entryY=0.5;entryDx=0;entryDy=0;" edge="1" parent="1" source="h1bzfyce9Wk_m36BZG1F-141" target="h1bzfyce9Wk_m36BZG1F-140">
          <mxGeometry width="50" height="50" relative="1" as="geometry">
            <mxPoint x="40" y="1560" as="sourcePoint" />
            <mxPoint x="90" y="1510" as="targetPoint" />
          </mxGeometry>
        </mxCell>
        <mxCell id="h1bzfyce9Wk_m36BZG1F-147" value="1,n" style="text;html=1;align=center;verticalAlign=middle;resizable=0;points=[];autosize=1;strokeColor=none;fillColor=none;" vertex="1" parent="1">
          <mxGeometry x="240" y="1455" width="40" height="30" as="geometry" />
        </mxCell>
        <mxCell id="h1bzfyce9Wk_m36BZG1F-148" value="1,n" style="text;html=1;align=center;verticalAlign=middle;resizable=0;points=[];autosize=1;strokeColor=none;fillColor=none;" vertex="1" parent="1">
          <mxGeometry x="240" y="1395" width="40" height="30" as="geometry" />
        </mxCell>
        <mxCell id="h1bzfyce9Wk_m36BZG1F-149" value="1,n" style="text;html=1;align=center;verticalAlign=middle;resizable=0;points=[];autosize=1;strokeColor=none;fillColor=none;" vertex="1" parent="1">
          <mxGeometry x="390" y="1582" width="40" height="30" as="geometry" />
        </mxCell>
        <mxCell id="h1bzfyce9Wk_m36BZG1F-150" value="1,1" style="text;html=1;align=center;verticalAlign=middle;resizable=0;points=[];autosize=1;strokeColor=none;fillColor=none;" vertex="1" parent="1">
          <mxGeometry x="-30" y="1392" width="40" height="30" as="geometry" />
        </mxCell>
        <mxCell id="h1bzfyce9Wk_m36BZG1F-151" value="1,1" style="text;html=1;align=center;verticalAlign=middle;resizable=0;points=[];autosize=1;strokeColor=none;fillColor=none;" vertex="1" parent="1">
          <mxGeometry x="-70" y="1560" width="40" height="30" as="geometry" />
        </mxCell>
        <mxCell id="h1bzfyce9Wk_m36BZG1F-152" value="1,1" style="text;html=1;align=center;verticalAlign=middle;resizable=0;points=[];autosize=1;strokeColor=none;fillColor=none;" vertex="1" parent="1">
          <mxGeometry x="470" y="1882" width="40" height="30" as="geometry" />
        </mxCell>
      </root>
    </mxGraphModel>
  </diagram>
</mxfile>
